<svg xmlns="http://www.w3.org/2000/svg" width="24" height="24" viewBox="0 0 24 24"><defs><style>.a,.b{fill:#fff;}.a{opacity:0;}</style></defs><rect class="a" width="24" height="24"/><g transform="translate(87.301 -37.89)"><path class="b" d="M-68.3,39.89h-4a1,1,0,0,0-1,1,1,1,0,0,0,1,1h4a1,1,0,0,1,1,1v14a1,1,0,0,1-1,1h-4a1,1,0,0,0-1,1,1,1,0,0,0,1,1h4a3,3,0,0,0,3-3v-14A3,3,0,0,0-68.3,39.89Z"/><path class="b" d="M-71.378,50.272a1,1,0,0,0,0-.763,1.006,1.006,0,0,0-.217-.326l-5-5a1,1,0,0,0-1.414,0,1,1,0,0,0,0,1.414l3.292,3.293H-84.3a1,1,0,0,0-1,1,1,1,0,0,0,1,1h9.585l-3.292,3.293a1,1,0,0,0,0,1.414.993.993,0,0,0,.707.293,1,1,0,0,0,.707-.293l5-5A1.006,1.006,0,0,0-71.378,50.272Z"/></g></svg>