<svg xmlns="http://www.w3.org/2000/svg" width="24" height="24" viewBox="0 0 24 24"><defs><style>.a,.b{fill:#b2b2b2;}.a{opacity:0;}</style></defs><rect class="a" width="24" height="24"/><g transform="translate(43.397 -37.39)"><path class="b" d="M-34.4,57.39h-4a1,1,0,0,1-1-1v-14a1,1,0,0,1,1-1h4a1,1,0,0,0,1-1,1,1,0,0,0-1-1h-4a3,3,0,0,0-3,3v14a3,3,0,0,0,3,3h4a1,1,0,0,0,1-1A1,1,0,0,0-34.4,57.39Z"/><path class="b" d="M-21.474,49.772a1,1,0,0,0,0-.763.99.99,0,0,0-.217-.326l-5-5a1,1,0,0,0-1.414,0,1,1,0,0,0,0,1.414l3.293,3.293H-34.4a1,1,0,0,0-1,1,1,1,0,0,0,1,1h9.586L-28.1,53.683a1,1,0,0,0,0,1.414.993.993,0,0,0,.707.293.993.993,0,0,0,.707-.293l5-5A.99.99,0,0,0-21.474,49.772Z"/></g></svg>