<svg xmlns="http://www.w3.org/2000/svg" xmlns:xlink="http://www.w3.org/1999/xlink" width="667.034" height="521.927" viewBox="0 0 667.034 521.927"><defs><style>.a,.l{fill:#2c66d5;}.a,.d,.g,.n{opacity:0.1;}.b{fill:url(#a);}.c{fill:#efb7b9;}.e,.n{fill:#fff;}.f{fill:#965d7b;}.h{fill:#fad8cd;}.i{fill:#a36468;}.j,.k{fill:#213188;}.j{opacity:0.6;}.m{opacity:0.05;}.o{fill:#a8a8a8;}.p{opacity:0.2;}</style><linearGradient id="a" y1="0.5" x2="1" y2="0.5" gradientUnits="objectBoundingBox"><stop offset="0" stop-color="gray" stop-opacity="0.251"/><stop offset="0.54" stop-color="gray" stop-opacity="0.122"/><stop offset="1" stop-color="gray" stop-opacity="0.102"/></linearGradient></defs><g transform="translate(0.004 -0.003)"><ellipse class="a" cx="116.354" cy="22.042" rx="116.354" ry="22.042" transform="translate(117.628 467.737)"/><path class="a" d="M482.779,128.636c-42.762-1.48-83.49-15.289-122.38-30.394S282.988,66.409,241.25,58.407c-26.845-5.147-57.549-5.88-79.175,8.5-20.82,13.875-27.546,37.761-31.16,59.941-2.722,16.69-4.321,34.259,3.132,49.885,5.18,10.849,14.364,19.967,20.72,30.36,22.115,36.155,6.482,80.741-17.476,116.044-11.232,16.558-24.282,32.376-32.957,49.984s-12.686,37.853-5.094,55.865c7.519,17.84,25.445,31.213,44.863,40.628,39.439,19.128,85.895,24.6,131.227,27.7,100.318,6.858,201.165,3.892,301.748.912,37.225-1.1,74.609-2.213,111.227-7.968,20.337-3.2,41.329-8.272,56.1-20.522,18.738-15.547,23.383-41.87,10.823-61.362-21.064-32.706-79.287-40.826-94.028-75.918-8.1-19.32.218-40.833,12-58.745,25.266-38.435,67.612-72.152,69.839-116.077,1.533-30.169-18.824-60.384-50.3-74.662-32.99-14.965-78.746-13.082-103.074,11.688C564.583,120.139,520.539,129.951,482.779,128.636Z" transform="translate(-95.23 -55.03)"/><path class="b" d="M524.409,326.651l-20.238-13.644h0l10.208-15.2-53.453-4.262L441.719,308.4l-24.044-13.479-20.053,2.412-.238-5.286a149.178,149.178,0,0,0-1.658-16.452c.086-1.652.145-3.548.139-5.61,0-8.689-1.176-20.205-6.343-27.883l1.189-10.691-9.647-11.4a72.932,72.932,0,0,1,5.286-8.893c.33-.476.661-.938,1.018-1.388a23.99,23.99,0,0,0,22.4-23.786,15.215,15.215,0,0,0-.066-1.738,6.292,6.292,0,0,0-.073-.7c1.222.661,2.458,1.321,3.693,1.982.231.33.5.661.786,1.051h0l.059.073.37.456.119.139c.132.159.271.311.41.469l.093.106c.35.39.72.786,1.117,1.176a1.184,1.184,0,0,1,.132.126l.5.463.139.126c.423.377.872.74,1.321,1.084l.145.106.568.39.185.119c.218.132.443.271.661.4l.079.046c.258.139.522.271.786.4l.132.053q.337.145.661.277l.2.073c.231.079.456.152.694.218l.145.04c.291.073.581.132.879.178h.033a7.187,7.187,0,0,0,.846.086h.192a7.254,7.254,0,0,0,.76,0h.165a7.813,7.813,0,0,0,.945-.112,10.426,10.426,0,0,0,4.163-1.493,3.634,3.634,0,0,0,.846-.786,3.115,3.115,0,0,0-.132-3.627h0c-.515-1.229-3.859-2.095-3.859-2.095s-10.572-4.414-10.572-7.929-2.643-21.751-29.924-25.92c0,0-17.747-1-22.736,8.5l-.106,1.11c-1.467.918-2.683,2.762-4.13,3.3a6.746,6.746,0,0,0-1.791.661v-.126h0a1.7,1.7,0,0,0-.4.522,5.286,5.286,0,0,0-.548,1.982,7.465,7.465,0,0,1-.865,2.4,5.344,5.344,0,0,1-.4.608h0l-.112.178a4.823,4.823,0,0,0,2.246-.363,11.187,11.187,0,0,1-.661,2.643,2.194,2.194,0,0,0,2.035-1.216v-.053l.086-.119a5.576,5.576,0,0,0,.41-.958l-.073.079c.132-.429.251-.866.4-1.288a2.022,2.022,0,0,1,.324-.661,1.6,1.6,0,0,1,1.368-.456l-.271,5.729h.119a7.821,7.821,0,0,1-.581,1.2c-.938,1.52-2.643,2.557-3.271,4.222a6.211,6.211,0,0,0-.3,2.5c0,.5.059,1,.1,1.493v-.04a5.572,5.572,0,0,1-.595,3.641c-.489.727-1.275,1.275-1.546,2.1a2.046,2.046,0,0,0-.1.714,8.014,8.014,0,0,0,.449,2.121.091.091,0,0,0,0-.04,3.225,3.225,0,0,1,.112,1.559c-.3,1.321-1.9,2.425-1.824,3.687a1.421,1.421,0,0,0,.073.489,2.676,2.676,0,0,0,1.493,1.321,5.814,5.814,0,0,0,3.357.74,4.414,4.414,0,0,0,1.255-.429c-.463,1.064-.938,2.114-1.421,3.112-.073.159-.152.317-.231.476,0,0-4.083-2.729-6.4,2.835a12.343,12.343,0,0,0-1.434,3.726,8.873,8.873,0,0,1-.489,1.533,9.865,9.865,0,0,1-4.414,3.964c-4.731,2.167-23.839,26-24.176,32.171a36,36,0,0,1-1.216,7.123,42.384,42.384,0,0,0-1.136,16.842,32.225,32.225,0,0,0,1.169,5.372c2.028,6.165,3.383,17.668,3.383,17.668L326.3,313.72a56.826,56.826,0,0,0,.357,8.253c-2.24,2.557-11.232,13.215-7.8,16.115,2.643,2.286,7.268,1.91,9.865,1.44-2.187,5.411-5.629,14.82-6.085,21.282-.661,9.561,1.13,22.227,3.964,27.09s12.283,17.338,12.283,17.338-.443,17.113,2.934,23.33,4.737,19.115,4.737,19.115,3.152,10.889,1.573,14.893,2.927,7.334-1.8,10-10.783,62.677-10.783,62.677-2.438,39.333,0,41.335a2.473,2.473,0,0,0,.416.244v13.215s-1.691,2.775,5.187,3.337c4.711.377,18.064,1.229,25.987,1.724l6.138.383s14.536,2.894,20.958,0,17.807-2.828,16.115-10.472a21.753,21.753,0,0,0-.9-3.059c-1.857-4.744-5.008-5.286-10.816-6.607-.337-.073-.661-.139-.958-.192-6.118-1.064-8.127,1.784-11.556-1.923-2.98-3.2-12.468-6.792-15.7-7.929.079-.238.178-.469.258-.714a4.838,4.838,0,0,1-2.451-1.2l8.755.555,5.213.324s12.356,2.465,17.84,0,15.131-2.4,13.69-8.893a18.635,18.635,0,0,0-.76-2.6c-1.579-4.03-4.262-4.473-9.2-5.59-.284-.06-.548-.119-.813-.165-5.2-.905-6.9,1.513-9.818-1.632-2.5-2.683-10.38-5.689-13.215-6.713,0-1.467-1.982-3.555-3.231-5.649-1.467-2.445,1.242-11,1.242-11l1.546-35.5a6.858,6.858,0,0,1,1.85-.529s6.991-6.673,5.411-13.783a45.68,45.68,0,0,1-.5-6.495c2.3-2.134,5.464-5.286,6.363-7.228,1.467-3.165,0-18.5,0-18.5v-58.64l11.695,1.183,10.611,1.09,3.231.33,10.611,1.07,24.387,2.464,21.976-4.163,9.508-1.8,19.551-3.7V329.994ZM363.449,168.135l-1.361-.145C362.537,168.01,363.013,168.1,363.449,168.135Z" transform="translate(-170.841 -87.638)"/><path class="c" d="M532.246,451.488c-6.607,9.455-30.36,4.447-30.36,4.447L483.478,438.71,481,436.377l4.156-8.827s1.321.363,3.588,1.011C500.643,432.017,537.823,443.54,532.246,451.488Z" transform="translate(-226.112 -181.414)"/><path class="d" d="M488.731,428.561a38.76,38.76,0,0,1-5.253,10.149L481,436.377l4.156-8.827S486.491,427.913,488.731,428.561Z" transform="translate(-226.112 -181.414)"/><path class="e" d="M388.85,278.277s-16.968,7.526-16.135,26.006A304.681,304.681,0,0,0,376.6,339.8s-3.469,27.81,10.975,34.979,27.81,13.063,27.81,13.063,22.6,2.431,25.4,3.436,11.583-14.351,9.964-16.743-22.359-7.407-25-11.4S417,356.686,417,356.686s-6.31-3.819-6.739-7.268,1.236-6.019,1.658-7.532,1.493-16.122,1.493-16.122S420.532,273.765,388.85,278.277Z" transform="translate(-189.364 -130.676)"/><path class="d" d="M403.226,370.39s-23.277,3.9-21.024,12.045A49.349,49.349,0,0,1,403.226,370.39Z" transform="translate(-192.541 -162.022)"/><path class="d" d="M408.917,375.38s-12.8,10.446-10.294,10.981S408.917,375.38,408.917,375.38Z" transform="translate(-198.054 -163.715)"/><path class="d" d="M422.65,380.89s-3.429,7.024-1.321,6.548S422.65,380.89,422.65,380.89Z" transform="translate(-205.635 -165.584)"/><path class="d" d="M453.279,378.949l-1.414-.4c.4-1.321.515-2.392.185-2.887-1.619-2.392-22.346-7.4-24.982-11.4s-8.755-6.455-8.755-6.455-6.31-3.819-6.739-7.268,1.236-6.019,1.658-7.532,1.493-16.128,1.493-16.128,7.1-51.993-24.579-47.48c0,0-16.967,7.532-16.142,26.013a303.857,303.857,0,0,0,3.892,35.521s-3.469,27.81,10.975,34.979,27.81,13.063,27.81,13.063,22.59,2.425,25.4,3.436c1.064.383,2.987-1.592,4.87-4.308l1.07,1,18.408,17.219s23.753,5.015,30.361-4.44C502.378,393.921,465.205,382.4,453.279,378.949Z" transform="translate(-189.802 -131.056)"/><path class="f" d="M380.328,171.489a5.615,5.615,0,0,0-1.83.707c-.661.548-.661,1.487-.826,2.306a7.586,7.586,0,0,1-1.321,3.158,4.75,4.75,0,0,0,2.2-.363,11.325,11.325,0,0,1-.661,2.643,2.141,2.141,0,0,0,1.982-1.209,12.733,12.733,0,0,0,.826-2.319,1.909,1.909,0,0,1,.317-.661c.608-.72,1.738-.4,2.676-.3a4.394,4.394,0,0,0,4.017-1.929c1-1.513,1.057-5.385-1.321-5.795C383.9,167.313,382.356,170.736,380.328,171.489Z" transform="translate(-190.608 -93.251)"/><g class="g" transform="translate(185.842 78.773)"><path d="M378.964,175.234c.059-.324.1-.661.172-.984h0a3.876,3.876,0,0,0-.826,2.306,7.269,7.269,0,0,1-.39,1.394,7.571,7.571,0,0,0,1.044-2.716Z" transform="translate(-376.982 -174.25)"/><path d="M378.694,182.643a10.986,10.986,0,0,0,.661-2.643,4.73,4.73,0,0,1-2.095.363,7.646,7.646,0,0,1-.76,1.321,4.7,4.7,0,0,0,2.194-.357,10.989,10.989,0,0,1-.661,2.643,2.147,2.147,0,0,0,1.982-1.209,4.933,4.933,0,0,0,.4-.945A1.982,1.982,0,0,1,378.694,182.643Z" transform="translate(-376.5 -176.201)"/><path d="M386.978,176.369c-.938-.092-2.075-.416-2.683.3a2.041,2.041,0,0,0-.317.661c-.059.172-.112.35-.159.529.628-.5,1.645-.231,2.5-.145a4.414,4.414,0,0,0,4.017-1.929,3.661,3.661,0,0,0,.443-1.037,4.4,4.4,0,0,1-3.8,1.619Z" transform="translate(-378.983 -174.42)"/></g><path class="e" d="M315.486,201l10.076,12.118-1.315,12.23L312.07,206.286Z" transform="translate(-105.878 -68.193)"/><path class="d" d="M325.556,213.118l-1.236,11.5-.079.727-10.988-17.205-1.183-1.857.344-.535L315.479,201l.681.819Z" transform="translate(-105.878 -68.193)"/><path class="h" d="M414.2,222.057c-3.409.978-6.667,4.334-9.5,8.411a71.791,71.791,0,0,0-5.127,8.814c-.932,1.863-1.751,3.654-2.431,5.213l-.476,1.11c-1.15,2.716-1.791,4.533-1.791,4.533s-26.1-19.624-21.969-20.945c1.388-.443,3.211-3.416,5.015-7.162l.225-.476c1.143-2.405,2.266-5.088,3.264-7.612,2.042-5.187,3.555-9.693,3.555-9.693S424.6,219.083,414.2,222.057Z" transform="translate(-189.288 -105.655)"/><path d="M459.26,202.58s6.026,10.9,14.12,9.415,4.764-5.854,4.764-5.854Z" transform="translate(-218.737 -105.088)"/><path class="i" d="M416.667,760.519c-5.339,2.438-17.41,0-17.41,0l-5.088-.317c-6.607-.423-17.668-1.136-21.579-1.453-5.709-.469-4.308-2.808-4.308-2.808V741.807l27.7-7.017s10.948,3.746,13.948,7.017c2.848,3.119,4.513.72,9.594,1.619.251.046.515.1.793.165,4.823,1.1,7.44,1.539,8.986,5.537a18.565,18.565,0,0,1,.747,2.577C431.474,758.14,422,758.094,416.667,760.519Z" transform="translate(-187.819 -285.652)"/><path class="d" d="M429.3,753.562a20.7,20.7,0,0,1-3.119,1.6c-3.634,1.658-7.09,3.68-10.763,5.246a25.173,25.173,0,0,1-11.609,2.385c-2.081-.152-4.209-.661-6.2-.066a14.311,14.311,0,0,0-3.442,1.909c-6.607-.423-17.668-1.136-21.579-1.453-5.709-.469-4.308-2.808-4.308-2.808v-1.652c.2,0,.436-.059.7-.079a12.47,12.47,0,0,1,4.03.6c2.868.78,5.722,1.546,8.589,2.312a6.786,6.786,0,0,1,3.3-4.215,10.531,10.531,0,0,1,5.326-1.222c4.447.06,8.656,2.167,13.1,2.379a7.214,7.214,0,0,0,3.627-.608c.608-.3,1.143-.747,1.738-1.084a12.685,12.685,0,0,1,2.993-1.011,65.92,65.92,0,0,0,8.556-2.762c.793-.31,1.718-.872,1.612-1.718-.139-1.123-1.9-1.255-2.365-2.286a1.322,1.322,0,0,1,.053-1.17c.251.046.515.1.793.165C425.138,749.129,427.754,749.565,429.3,753.562Z" transform="translate(-187.819 -290.087)"/><path class="i" d="M403.73,804.981c-6.277,2.868-20.483,0-20.483,0l-5.98-.35c-7.744-.5-20.786-1.321-25.392-1.711-6.72-.555-5.068-3.3-5.068-3.3V782.959L379.4,774.7s12.884,4.407,16.412,8.259c3.35,3.667,5.286.846,11.292,1.9.3.053.608.119.932.192,5.676,1.322,8.755,1.817,10.572,6.521a21.214,21.214,0,0,1,.879,3.033C421.127,802.18,410.007,802.12,403.73,804.981Z" transform="translate(-180.524 -299.193)"/><path class="d" d="M418.6,796.81a24.6,24.6,0,0,1-3.667,1.883c-4.275,1.949-8.345,4.328-12.666,6.171s-8.979,3.152-13.664,2.808c-2.445-.178-4.949-.793-7.268-.079a16.849,16.849,0,0,0-4.063,2.273c-7.744-.5-20.786-1.321-25.392-1.711-6.72-.555-5.068-3.3-5.068-3.3v-1.943a8.282,8.282,0,0,1,.826-.092,14.5,14.5,0,0,1,4.744.707l10.1,2.722a8,8,0,0,1,3.918-4.962,12.33,12.33,0,0,1,6.27-1.44c5.233.073,10.182,2.55,15.408,2.8a8.532,8.532,0,0,0,4.255-.707c.72-.363,1.321-.885,2.048-1.275a14.369,14.369,0,0,1,3.522-1.189,79.1,79.1,0,0,0,10.017-3.251c.932-.37,2.022-1.031,1.9-2.022-.165-1.321-2.24-1.48-2.788-2.7a1.592,1.592,0,0,1,.066-1.374c.3.053.608.119.932.192C413.7,791.59,416.779,792.106,418.6,796.81Z" transform="translate(-180.524 -304.428)"/><path d="M400.432,647.54l-1.764,41.514s-2.643,8.477-1.209,10.9,3.852,4.843,2.973,6.277-11.45,16.934-14.866,10.988-6.786-31.715-6.786-31.715l3.152-31.827Z" transform="translate(-191.432 -256.051)"/><path d="M418.041,491l4.9,6.554v57.008s1.434,15.2,0,18.335-8.7,9.415-8.7,9.415l-6.112-31.385,1.321-33.2Z" transform="translate(-201.39 -202.941)"/><path class="j" d="M400.432,647.54l-1.764,41.514s-2.643,8.477-1.209,10.9,3.852,4.843,2.973,6.277-11.45,16.934-14.866,10.988-6.786-31.715-6.786-31.715l3.152-31.827Z" transform="translate(-191.432 -256.051)"/><path class="j" d="M418.041,491l4.9,6.554v57.008s1.434,15.2,0,18.335-8.7,9.415-8.7,9.415l-6.112-31.385,1.321-33.2Z" transform="translate(-201.39 -202.941)"/><path class="k" d="M395.419,446.057v30.836l-5.5,24s-1.764,57.926-.225,64.969-5.286,13.657-5.286,13.657-3.964.443-3.964,3.522-6.607,11.893-6.607,11.893l.218,17.179s2.868,32.158-1.539,38.322,1.539,7.05,1.539,7.05c-5.5,18.058-31.933,13.875-34.318,11.893s0-40.965,0-40.965,5.907-59.466,10.532-62.108.225-5.947,1.764-9.911-1.539-14.754-1.539-14.754-1.321-12.778-4.625-18.943S343,499.576,343,499.576s-9.25-12.336-12-17.179-4.519-17.4-3.859-26.872c.449-6.4,3.812-15.725,5.947-21.09,1.024-2.57,1.764-4.235,1.764-4.235l.628.165,36.089,9.448Z" transform="translate(-173.865 -182.314)"/><path class="d" d="M418.789,222.033c-3.409.978-6.667,4.334-9.5,8.411h-.74A23.6,23.6,0,0,1,388.065,218.6a23.246,23.246,0,0,1-2.075-4.724c2.042-5.187,3.555-9.693,3.555-9.693S429.2,219.06,418.789,222.033Z" transform="translate(-193.878 -105.631)"/><path class="h" d="M431.622,194.062a23.621,23.621,0,1,1-44.19-11.576,23.082,23.082,0,0,1,2.5-3.608,23.906,23.906,0,0,1,5.431-4.77,23.621,23.621,0,0,1,36.228,18.223C431.6,192.912,431.622,193.487,431.622,194.062Z" transform="translate(-193.332 -94.178)"/><path class="d" d="M407.729,270.969l-.079.727-10.988-17.179c-1.15,2.716-1.791,4.533-1.791,4.533s-26.1-19.65-21.969-20.972c1.388-.443,3.211-3.416,5.015-7.162l.225-.476c1.916,5.709,13.049,17.119,17.681,21.692.535.529.978.965,1.321,1.282l.707.661.37.37C399.906,256.182,407.016,263.846,407.729,270.969Z" transform="translate(-189.288 -114.541)"/><path class="e" d="M398.309,329.16l-1.2,38.7-.211,6.891s-14.245-1.322-27.539-2.775c-10.7-1.169-20.793-2.431-22.346-3.172-1.982-.932-6.231-1.652-9.581-2.108-2.59-.35-4.625-.535-4.625-.535s-.76.225-1.929.436c-2.55.463-7.03.839-9.64-1.427-3.337-2.9,5.431-13.439,7.618-15.97l.482-.548-.826-7.631-2.147-19.789s-1.321-11.4-3.3-17.509a32.3,32.3,0,0,1-1.143-5.319,42.6,42.6,0,0,1,1.11-16.69,36.4,36.4,0,0,0,1.189-7.063c.33-6.112,19-29.733,23.621-31.88a9.805,9.805,0,0,0,4.731-4.718,9.01,9.01,0,0,0,.72-2.055c1.982-8.589,7-5.18,7-5.18,1.209,6.72,19.928,24.506,19.928,24.506l.37.37c1.857,1.9,10.129,10.836,9.541,18.461a22.376,22.376,0,0,0,1.249,8.352,141.232,141.232,0,0,1,6.508,37Z" transform="translate(-171.655 -114.442)"/><path class="d" d="M393.675,310.45s-4.625,11.232-8.094,13.049S395.326,327.332,393.675,310.45Z" transform="translate(-193.541 -141.686)"/><path class="d" d="M397.952,342.2s-10.572,1.321-10.572,3.3S397.952,342.2,397.952,342.2Z" transform="translate(-194.35 -152.458)"/><path class="d" d="M409.772,361.7s-15.362,32.706-19.657,33.7S409.772,361.7,409.772,361.7Z" transform="translate(-195.103 -159.073)"/><path class="d" d="M396.041,257.644l-12.706,5.524L368,240a9.014,9.014,0,0,0,.72-2.055c1.982-8.589,7-5.18,7-5.18,1.209,6.72,19.928,24.506,19.928,24.506Z" transform="translate(-187.775 -115.104)"/><path class="e" d="M397.041,255.644l-12.706,5.524L369,238a9.011,9.011,0,0,0,.72-2.055c1.982-8.589,7-5.18,7-5.18,1.209,6.72,19.928,24.506,19.928,24.506Z" transform="translate(-188.114 -114.425)"/><path class="d" d="M400.421,395.677s-14.245-1.321-27.539-2.775l23.852,6.244v7.268c-1.044.945-1.949,1.434-2.537,1.183-2.749-1.156-25.18-4.79-25.18-4.79s-13.03-6.607-27.09-14.536a10.862,10.862,0,0,1-.991-.621,15.62,15.62,0,0,1-4.163-4.169c-2.6-3.76-3.865-8.589-4.414-13.327a57.624,57.624,0,0,1-.344-8.18,67.069,67.069,0,0,1,.846-9.244,303.975,303.975,0,0,1-1.982-35.679c.165-18.5,17.509-25.108,17.509-25.108,31.88-2.808,22,48.729,22,48.729s-1.843,14.536-2.346,16.023-2.306,3.964-2.061,7.433,6.336,7.618,6.336,7.618,5.947,2.788,8.4,6.918c1.784,3.046,13.373,7.176,19.921,10.122Z" transform="translate(-175.18 -135.369)"/><path class="d" d="M429.226,177.815a7.478,7.478,0,0,1-.661,3.158,19.525,19.525,0,0,1-1.176,2.352,10.836,10.836,0,0,1-2.894,3.594c-1.526,1.09-3.456,1.394-5.286,1.837s-3.733,1.15-4.777,2.709a9.475,9.475,0,0,0-1.117,3.238,6.964,6.964,0,0,1-1.321,3.132,2.6,2.6,0,0,1-3.092.74,3.125,3.125,0,0,1-1.2-1.539,22.079,22.079,0,0,1-1.249-5.411,11.513,11.513,0,0,0-1.857-5.187,4.645,4.645,0,0,0-4.876-1.87,4.7,4.7,0,0,0-2.643,2.564,14.694,14.694,0,0,0-1,3.647q-1.229,6.726-2.9,13.373a1.228,1.228,0,0,1-.218.5.951.951,0,0,1-.661.278c-1.48.2-2.9-.839-4.394-.727a2.525,2.525,0,0,0-.456.073,23.608,23.608,0,0,1,2.385-26.958l.119-.033a7.122,7.122,0,0,0,2.643-1.665,27.883,27.883,0,0,0,2.643-3.059l.529-.661a30.136,30.136,0,0,1,5.154-4.9,5.287,5.287,0,0,1,1.758-.951A5.207,5.207,0,0,1,404.35,166a42,42,0,0,0,6.878.258,44.138,44.138,0,0,1,4.83-.489c4.182.119,7.75,3.072,10.393,6.31C427.872,173.738,429.14,175.648,429.226,177.815Z" transform="translate(-193.308 -92.6)"/><path class="f" d="M380.83,181.206c-.918,1.506-2.577,2.531-3.2,4.182-.912,2.4.628,5.385-.786,7.526-.469.72-1.242,1.255-1.506,2.081-.449,1.394.78,2.881.463,4.315s-2.207,2.643-1.7,4.044a2.643,2.643,0,0,0,1.454,1.321,5.682,5.682,0,0,0,3.3.733c1.8-.3,3.145-2.068,4.975-2.2,1.487-.106,2.907.925,4.387.733a.991.991,0,0,0,.661-.284,1.143,1.143,0,0,0,.218-.5q1.665-6.64,2.907-13.373a14.406,14.406,0,0,1,.991-3.647,4.737,4.737,0,0,1,2.643-2.564,4.66,4.66,0,0,1,4.876,1.87,11.444,11.444,0,0,1,1.863,5.187,22.374,22.374,0,0,0,1.242,5.411,3.158,3.158,0,0,0,1.2,1.546,2.588,2.588,0,0,0,3.086-.74,6.891,6.891,0,0,0,1.321-3.138,9.435,9.435,0,0,1,1.117-3.231c1.044-1.559,2.953-2.266,4.777-2.709s3.746-.753,5.286-1.843a10.875,10.875,0,0,0,2.894-3.588,10.563,10.563,0,0,0,1.81-5.517c-.086-2.141-1.355-4.05-2.709-5.715-2.643-3.238-6.217-6.191-10.4-6.3a41.092,41.092,0,0,0-4.83.489,41.346,41.346,0,0,1-6.878-.264,5.4,5.4,0,0,0-1.665.059,4.982,4.982,0,0,0-1.751.951,30.15,30.15,0,0,0-5.16,4.889,37.867,37.867,0,0,1-3.185,3.7,7.17,7.17,0,0,1-2.643,1.672c-.661.185-1.321.053-1.949.258C381.992,177.169,381.735,179.713,380.83,181.206Z" transform="translate(-189.814 -92.271)"/><path class="j" d="M473.38,211.989c-5.286.971-9.667-3.3-12.091-6.422a25.913,25.913,0,0,1-2.028-2.986L477.4,206l.733.139S481.474,210.509,473.38,211.989Z" transform="translate(-218.737 -105.088)"/><g class="g" transform="translate(184.166 83.894)"><path d="M376.431,212.867a5.5,5.5,0,0,0-.383-2.537c0,.066-.059.132-.079.2a4.918,4.918,0,0,0,.344,2.722A1.981,1.981,0,0,0,376.431,212.867Z" transform="translate(-374.61 -191.612)"/><path d="M379.079,197.8a14.682,14.682,0,0,0,.053,2.742,14.718,14.718,0,0,0-.053-2.742Z" transform="translate(-375.685 -187.361)"/><path d="M423.245,186.262a10.836,10.836,0,0,1-2.894,3.594c-1.526,1.09-3.449,1.394-5.286,1.837s-3.733,1.15-4.777,2.709a9.519,9.519,0,0,0-1.117,3.238,6.917,6.917,0,0,1-1.321,3.138,2.579,2.579,0,0,1-3.086.74,3.158,3.158,0,0,1-1.2-1.546,22,22,0,0,1-1.242-5.411,11.416,11.416,0,0,0-1.863-5.187,4.645,4.645,0,0,0-4.876-1.87,4.718,4.718,0,0,0-2.643,2.564,14.4,14.4,0,0,0-.991,3.647q-1.236,6.733-2.907,13.373a1.142,1.142,0,0,1-.218.5.991.991,0,0,1-.661.284c-1.48.192-2.9-.839-4.387-.733-1.83.132-3.172,1.9-4.975,2.194a5.583,5.583,0,0,1-3.3-.733,3.535,3.535,0,0,1-1.209-.859,1.784,1.784,0,0,0-.244,1.539,2.576,2.576,0,0,0,1.454,1.321,5.583,5.583,0,0,0,3.3.733c1.8-.291,3.145-2.061,4.975-2.194,1.487-.106,2.907.925,4.387.733a.991.991,0,0,0,.661-.284,1.143,1.143,0,0,0,.218-.5q1.665-6.607,2.907-13.373a14.4,14.4,0,0,1,.991-3.647,4.718,4.718,0,0,1,2.643-2.564,4.649,4.649,0,0,1,4.876,1.87,11.444,11.444,0,0,1,1.863,5.187,22.372,22.372,0,0,0,1.242,5.411,3.158,3.158,0,0,0,1.2,1.546,2.588,2.588,0,0,0,3.086-.74,6.917,6.917,0,0,0,1.322-3.138,9.52,9.52,0,0,1,1.117-3.238c1.044-1.559,2.953-2.26,4.777-2.709s3.746-.747,5.286-1.837a10.835,10.835,0,0,0,2.894-3.594,10.521,10.521,0,0,0,1.81-5.51,7.086,7.086,0,0,0-.079-.753A12.983,12.983,0,0,1,423.245,186.262Z" transform="translate(-373.964 -182)"/></g><path class="d" d="M430.173,182.535a23.343,23.343,0,0,1,2.94,9.812c-5.887-3.3-11.424-6.931-14.219-8.193-4.87-2.2-23.079-1.87-29.924-1.665a23.08,23.08,0,0,1,2.5-3.608,23.9,23.9,0,0,1,5.451-4.77,23.634,23.634,0,0,1,33.287,8.411Z" transform="translate(-194.889 -94.181)"/><path class="d" d="M475.032,209.187c-3.178.978-8.365-.912-13.743-3.621a25.913,25.913,0,0,1-2.028-2.986L477.4,206C478.606,206.822,478.91,207.991,475.032,209.187Z" transform="translate(-218.737 -105.088)"/><path class="k" d="M409.632,154.065s-17.344-.991-22.22,8.424l-.786,8.345-1.321-.145-.264,5.676s26.508-1.156,32.541,1.566,24.777,16.439,32.29,14.126-.661-4.46-.661-4.46-10.34-4.381-10.34-7.816S436.306,158.194,409.632,154.065Z" transform="translate(-193.556 -88.618)"/><path class="d" d="M371.63,622.28s11.067,10.737,15.857,9.911C387.487,632.191,373.943,631.035,371.63,622.28Z" transform="translate(-189.006 -247.481)"/><path class="d" d="M368.13,629.81s.991,5.524,3.634,4.982S368.13,629.81,368.13,629.81Z" transform="translate(-187.819 -250.036)"/><path class="d" d="M387.518,769.53s-15.712,12.224-13.063,12.554S387.518,769.53,387.518,769.53Z" transform="translate(-189.863 -297.439)"/><path class="l" d="M330.96,343.079l50.876-8.279v48.167L333.5,380.436Z" transform="translate(-112.287 -113.587)"/><path class="m" d="M330.96,343.079l50.876-8.279v48.167L333.5,380.436Z" transform="translate(-112.287 -113.587)"/><path class="l" d="M407.96,334.8l61.012,4.566L465.6,381.282l-57.635,1.685Z" transform="translate(-138.411 -113.587)"/><path class="d" d="M407.96,334.8l61.012,4.566L465.6,381.282l-57.635,1.685Z" transform="translate(-138.411 -113.587)"/><path class="l" d="M426.718,312.55l-18.758,14.7,61.012,4.566,9.97-15.045Z" transform="translate(-138.411 -106.038)"/><path class="l" d="M303.08,320.167l45.8-5.577,23.5,13.353L321.5,336.222Z" transform="translate(-102.828 -106.73)"/><path class="l" d="M392.989,351.559v65.855l-23.832-2.445-10.367-1.057-3.158-.33-10.36-1.064-14.311-1.467V347.33l50.869,3.462Z" transform="translate(-112.287 -117.838)"/><path class="l" d="M474.7,341.71v64.223L455.6,409.6l-9.29,1.784-21.467,4.123V349.652Z" transform="translate(-144.138 -115.931)"/><path class="m" d="M474.7,341.71v64.223L455.6,409.6l-9.29,1.784-21.467,4.123V349.652Z" transform="translate(-144.138 -115.931)"/><path class="l" d="M303.08,361.192,321.5,347.33l62.029,4.229L374.4,366.94Z" transform="translate(-102.828 -117.838)"/><path class="n" d="M303.08,361.192,321.5,347.33l62.029,4.229L374.4,366.94Z" transform="translate(-102.828 -117.838)"/><path class="l" d="M474.7,341.71l-49.859,7.942,16.227,14.536,53.407-8.959Z" transform="translate(-144.138 -115.931)"/><path class="n" d="M474.7,341.71l-49.859,7.942,16.227,14.536,53.407-8.959Z" transform="translate(-144.138 -115.931)"/><path class="n" d="M466.62,437.2l-9.29,1.784V425.264l8.7-2.194Z" transform="translate(-155.161 -143.535)"/><path class="n" d="M383.447,435.96v9.078l-10.367-1.057V435.96Z" transform="translate(-126.577 -147.908)"/><path class="n" d="M362.98,440.29v4.83l-10.36-1.064V440.29Z" transform="translate(-119.636 -149.377)"/><path class="d" d="M484.774,470.129c-7.1,9.085-30.559,2.808-30.559,2.808l-17.43-18.183-2.365-2.465,4.625-8.589s1.321.436,3.528,1.2C454.255,448.986,490.754,462.484,484.774,470.129Z" transform="translate(-210.309 -186.894)"/><path class="c" d="M483.774,468.129c-7.1,9.085-30.559,2.808-30.559,2.808l-17.43-18.183-2.365-2.465,4.625-8.59s1.321.436,3.528,1.2C453.255,446.986,489.754,460.484,483.774,468.129Z" transform="translate(-209.97 -186.215)"/><path class="d" d="M441.533,442.9a39.064,39.064,0,0,1-5.788,9.852l-2.365-2.465,4.625-8.59S439.333,442.136,441.533,442.9Z" transform="translate(-209.956 -186.215)"/><path class="e" d="M349.388,287.942s-17.344,6.607-17.509,25.108a303.985,303.985,0,0,0,1.982,35.679s-4.956,27.585,9.085,35.514,27.09,14.536,27.09,14.536,22.432,3.634,25.187,4.79,12.329-13.71,10.843-16.188-21.91-8.589-24.335-12.719-8.4-6.911-8.4-6.911-6.092-4.156-6.336-7.625,1.553-5.947,2.061-7.433,2.352-16.023,2.352-16.023S381.269,285.1,349.388,287.942Z" transform="translate(-175.519 -134.011)"/><path class="d" d="M359.217,380.7s-23.456,2.643-21.639,10.9A49.346,49.346,0,0,1,359.217,380.7Z" transform="translate(-177.419 -165.52)"/><path class="d" d="M364.645,385.7s-13.314,9.746-10.869,10.406S364.645,385.7,364.645,385.7Z" transform="translate(-182.847 -167.216)"/><path class="d" d="M378.194,391.7s-3.8,6.832-1.652,6.475S378.194,391.7,378.194,391.7Z" transform="translate(-190.45 -169.252)"/><path class="l" d="M737.492,167.4s-25.108-1.513-22.174,16.1a4.3,4.3,0,0,0,2.233,4.526s.046-1.321,2.577-.866a11.57,11.57,0,0,0,2.729.132,5.663,5.663,0,0,0,3.343-1.381h0s7.063-2.914,9.812-14.463c0,0,2.035-2.524,1.982-3.171l-4.242,1.817s1.447,3.059.3,5.6c0,0-.132-5.491-.952-5.365-.165,0-2.2,1.064-2.2,1.064s2.491,5.325.608,9.2c0,0,.714-6.568-1.388-8.821l-2.986,1.744s2.914,5.5.938,10c0,0,.509-6.891-1.566-9.574l-2.709,2.108s2.742,5.431,1.07,9.158c0,0-.218-8.021-1.658-8.629a16.339,16.339,0,0,0-2.722,2.947s1.87,3.964.707,6.019c0,0-.714-5.345-1.321-5.372,0,0-2.359,3.541-2.6,5.947a12.859,12.859,0,0,1,2.028-6.3,7.078,7.078,0,0,0-3.608,1.87s.363-2.5,4.189-2.722c0,0,1.982-2.689,2.471-2.854,0,0-3.806-.317-6.112.707,0,0,2.028-2.359,6.812-1.321l2.643-2.18s-5.008-.661-7.136.073c0,0,2.445-2.088,7.856-.568l2.907-1.738a26.1,26.1,0,0,0-6.812-.588s2.683-1.447,7.665.119l2.081-.932s-3.132-.614-4.044-.714-.965-.35-.965-.35a10.81,10.81,0,0,1,5.874.661S737.584,167.681,737.492,167.4Z" transform="translate(-305.529 -93.143)"/><path class="a" d="M852.952,300.743s-25.108-1.513-22.174,16.1a4.3,4.3,0,0,0,2.233,4.526s.046-1.321,2.583-.866a11.569,11.569,0,0,0,2.729.132,5.655,5.655,0,0,0,3.3-1.374h0s7.07-2.92,9.818-14.47c0,0,2.028-2.517,1.949-3.165l-4.242,1.81s1.447,3.059.311,5.6c0,0-.139-5.491-.951-5.365-.165,0-2.207,1.064-2.207,1.064s2.5,5.332.615,9.2c0,0,.714-6.568-1.394-8.821l-2.953,1.724s2.914,5.5.938,10c0,0,.509-6.891-1.566-9.574l-2.7,2.114s2.735,5.425,1.07,9.151c0,0-.218-8.021-1.658-8.629a16.571,16.571,0,0,0-2.729,2.947s1.876,3.964.714,6.019c0,0-.714-5.345-1.321-5.372,0,0-2.359,3.541-2.6,5.947a12.9,12.9,0,0,1,2.035-6.3,7.11,7.11,0,0,0-3.614,1.87s.37-2.5,4.2-2.722c0,0,1.949-2.689,2.471-2.854,0,0-3.806-.317-6.112.707,0,0,2.028-2.359,6.805-1.288l2.643-2.18s-5.015-.661-7.136.073c0,0,2.445-2.088,7.856-.568l2.907-1.738a26.476,26.476,0,0,0-6.819-.588s2.689-1.447,7.671.119l2.081-.932s-3.132-.614-4.05-.714-.965-.35-.965-.35a10.83,10.83,0,0,1,5.881.661S853.031,301.021,852.952,300.743Z" transform="translate(-344.701 -138.381)"/><path class="a" d="M624.811,264.338s5.781-24.506-12.085-24.592a4.292,4.292,0,0,0-4.836,1.427s1.275.271.41,2.689a11.756,11.756,0,0,0-.595,2.643,5.675,5.675,0,0,0,.786,3.522h0s1.672,7.466,12.554,12.144c0,0,2.141,2.432,2.788,2.458l-1.057-4.486s-3.264.905-5.577-.661c0,0,5.438.8,5.444,0,0-.165-.661-2.352-.661-2.352s-5.676,1.546-9.177-.971c0,0,6.35,1.824,8.933.139l-1.189-3.251s-5.947,1.936-10.017-.78c0,0,6.706,1.678,9.706.093l-1.619-3.026s-5.814,1.771-9.2-.509c0,0,7.929,1.15,8.788-.159a16.415,16.415,0,0,0-2.438-3.191s-4.2,1.176-6.052-.324c0,0,5.385.2,5.51-.363,0,0-3.086-2.927-5.438-3.588a12.951,12.951,0,0,1,5.874,3.079,7.129,7.129,0,0,0-1.229-3.878s2.405.793,1.982,4.625c0,0,2.313,2.379,2.385,2.92,0,0,.958-3.693.344-6.145,0,0,1.982,2.405.112,6.931l1.691,3.006s1.533-4.823,1.143-7.043c0,0,1.645,2.762-.78,7.836l1.222,3.165a26.46,26.46,0,0,0,1.738-6.607s.971,2.894-1.427,7.539l.568,2.207s1.136-2.98,1.388-3.865.509-.892.509-.892a10.823,10.823,0,0,1-1.645,5.682S624.526,264.371,624.811,264.338Z" transform="translate(-269.089 -117.616)"/><path class="a" d="M535.722,286.471s-20.165-15.084-27.374,1.255a4.3,4.3,0,0,0-.621,5.008s.753-1.064,2.643.7a11.568,11.568,0,0,0,2.207,1.612,5.669,5.669,0,0,0,3.548.661h0s7.506,1.447,16.148-6.687c0,0,3.086-.991,3.376-1.573l-4.552-.8s-.476,3.35-2.821,4.85c0,0,2.9-4.665,2.147-5-.152-.073-2.425-.33-2.425-.33s-.846,5.828-4.546,8.028c0,0,4.209-5.094,3.687-8.134l-3.456-.185s-.588,6.2-4.711,8.874c0,0,4.209-5.477,3.964-8.86l-3.423.278s-.694,6.032-4.136,8.226c0,0,4.222-6.819,3.357-8.114a16.61,16.61,0,0,0-3.9.958s-.6,4.321-2.716,5.418c0,0,2.346-4.856,1.87-5.193,0,0-3.918,1.658-5.458,3.548a12.9,12.9,0,0,1,5.167-4.149,7.116,7.116,0,0,0-4.044-.423s1.678-1.89,5,.033c0,0,3.105-1.169,3.634-1.024,0,0-3.006-2.359-5.5-2.768,0,0,3-.859,6.4,2.643l3.429-.35s-3.812-3.3-6-3.859c0,0,3.191-.4,6.872,3.839l3.383.152a26.375,26.375,0,0,0-5.365-4.242s3.033.264,6.336,4.315l2.253.363s-2.279-2.233-2.993-2.815-.615-.826-.615-.826a10.857,10.857,0,0,1,4.552,3.779S535.636,286.742,535.722,286.471Z" transform="translate(-234.987 -131.397)"/><path class="a" d="M637.332,74.359s-20.165-15.091-27.374,1.255a4.3,4.3,0,0,0-.621,5.008s.753-1.064,2.643.7a11.752,11.752,0,0,0,2.213,1.606,5.663,5.663,0,0,0,3.548.661h0s7.506,1.447,16.148-6.693c0,0,3.086-.984,3.37-1.573l-4.552-.786s-.469,3.35-2.821,4.85c0,0,2.907-4.665,2.154-5-.152-.073-2.425-.33-2.425-.33s-.872,5.841-4.572,8.028c0,0,4.2-5.094,3.687-8.134l-3.456-.185s-.595,6.2-4.711,8.867c0,0,4.209-5.477,3.964-8.86l-3.416.278s-.7,6.039-4.143,8.233c0,0,4.229-6.819,3.363-8.114a16.609,16.609,0,0,0-3.9.958s-.6,4.321-2.716,5.418c0,0,2.346-4.856,1.87-5.2,0,0-3.918,1.665-5.458,3.555a12.844,12.844,0,0,1,5.167-4.149,7.07,7.07,0,0,0-4.05-.423s1.685-1.89,5,.033c0,0,3.105-1.176,3.634-1.024,0,0-3.006-2.359-5.5-2.775,0,0,2.993-.852,6.4,2.643l3.429-.35s-3.806-3.3-6-3.865c0,0,3.191-.4,6.878,3.845l3.383.145a26.1,26.1,0,0,0-5.372-4.235s3.039.264,6.343,4.315l2.247.363s-2.286-2.207-3-2.775-.614-.819-.614-.819a10.836,10.836,0,0,1,4.552,3.779S637.22,74.61,637.332,74.359Z" transform="translate(-269.46 -59.432)"/><path class="a" d="M754.954,97.992s-8.061-23.859-23.264-14.483a4.343,4.343,0,0,0-3.35,3.773s1.222-.449,1.764,2.061a11.894,11.894,0,0,0,.905,2.583,5.721,5.721,0,0,0,2.537,2.57h0s5.365,5.451,17.1,3.647c0,0,3.1.938,3.667.614l-3.3-3.244s-2.286,2.491-5.074,2.392c0,0,5.041-2.194,4.625-2.9-.086-.139-1.81-1.639-1.81-1.639s-4,4.315-8.3,4.03c0,0,6.35-1.81,7.645-4.625l-2.735-2.108s-4,4.77-8.913,4.625c0,0,6.607-2.121,8.279-5.055l-2.973-1.711s-3.964,4.579-8.074,4.433c0,0,7.347-3.218,7.367-4.777a16.518,16.518,0,0,0-3.753-1.421s-2.947,3.218-5.286,2.927c0,0,4.678-2.676,4.48-3.224,0,0-4.162-.852-6.508-.165a12.878,12.878,0,0,1,6.607-.5,7.13,7.13,0,0,0-3.1-2.643s2.458-.6,4.1,2.861c0,0,3.224.8,3.568,1.216,0,0-1.136-3.641-2.953-5.4,0,0,2.953,1,3.759,5.828l3.026,1.652s-1.249-4.9-2.755-6.607c0,0,2.861,1.48,3.482,7.063l2.709,2.042a26.263,26.263,0,0,0-2.022-6.541s2.352,1.943,2.775,7.156L750.825,94s-.608-3.132-.859-4.017-.046-.945-.046-.945a10.9,10.9,0,0,1,1.606,5.7S754.723,98.164,754.954,97.992Z" transform="translate(-310.028 -63.95)"/><path class="a" d="M677.141,108.248s-25.042-2.788-22.974,14.979a4.289,4.289,0,0,0,1.982,4.625s.112-1.321,2.643-.727a12.157,12.157,0,0,0,2.722.271,5.682,5.682,0,0,0,3.4-1.209h0s7.209-2.557,10.572-13.955c0,0,2.154-2.412,2.108-3.066l-4.328,1.6s1.321,3.125,0,5.61c0,0,.139-5.491-.661-5.4-.165,0-2.253.951-2.253.951s2.22,5.451.145,9.25c0,0,1.044-6.528-.945-8.88l-3.072,1.586s2.643,5.649.43,10.036c0,0,.859-6.858-1.077-9.64l-2.808,1.982s2.458,5.557.6,9.2c0,0,.192-8.021-1.216-8.7a17.189,17.189,0,0,0-2.874,2.8s1.672,4.03.41,6.046c0,0-.443-5.372-1.024-5.425,0,0-2.537,3.416-2.907,5.828a12.864,12.864,0,0,1,2.352-6.2,7.11,7.11,0,0,0-3.7,1.685s.489-2.478,4.321-2.5c0,0,2.081-2.583,2.643-2.722,0,0-3.786-.509-6.145.4,0,0,2.147-2.26,6.865-.945l2.782-2.042s-5.028-1.018-7.156-.357c0,0,2.55-1.982,7.876-.165l2.993-1.592a26.31,26.31,0,0,0-6.779-.932s2.755-1.321,7.651.509l2.128-.826s-3.1-.773-4.011-.918-.945-.4-.945-.4a10.869,10.869,0,0,1,5.841.951S677.187,108.526,677.141,108.248Z" transform="translate(-284.822 -73.03)"/><path class="a" d="M1008.748,402.418s-25.028-2.788-22.96,14.959A4.289,4.289,0,0,0,987.77,422s.112-1.321,2.643-.733a11.428,11.428,0,0,0,2.722.271,5.636,5.636,0,0,0,3.4-1.209h0s7.209-2.557,10.539-13.948c0,0,2.154-2.418,2.108-3.066l-4.328,1.592s1.322,3.132,0,5.616c0,0,.139-5.5-.661-5.4-.165,0-2.253.945-2.253.945s2.22,5.451.145,9.25c0,0,1.044-6.521-.945-8.88l-3.072,1.592s2.643,5.649.436,10.036c0,0,.852-6.858-1.084-9.647l-2.808,1.982s2.458,5.557.6,9.191c0,0,.192-8.021-1.216-8.7a17.447,17.447,0,0,0-2.874,2.8s1.678,4.031.41,6.046c0,0-.443-5.372-1.024-5.425,0,0-2.537,3.416-2.907,5.828a12.864,12.864,0,0,1,2.352-6.2,7.05,7.05,0,0,0-3.7,1.685s.489-2.484,4.321-2.511c0,0,2.088-2.583,2.643-2.716,0,0-3.786-.515-6.145.39,0,0,2.147-2.253,6.872-.938l2.775-2.042s-4.969-.938-7.129-.291c0,0,2.55-1.982,7.876-.172l2.993-1.586a26.307,26.307,0,0,0-6.779-.932s2.755-1.321,7.651.509l2.128-.833s-3.1-.773-4.011-.912-.945-.4-.945-.4a10.829,10.829,0,0,1,5.841.945S1008.814,402.7,1008.748,402.418Z" transform="translate(-397.331 -172.834)"/><path class="a" d="M1066.658,437.8s-25.028-2.782-22.96,14.959a4.3,4.3,0,0,0,1.982,4.625s.112-1.321,2.643-.727a11.667,11.667,0,0,0,2.715.264,5.709,5.709,0,0,0,3.39-1.2h0s7.2-2.557,10.532-13.955c0,0,2.161-2.412,2.108-3.066l-4.328,1.592s1.321,3.132,0,5.616c0,0,.139-5.491-.661-5.4-.165,0-2.253.945-2.253.945s2.22,5.451.145,9.25c0,0,1.044-6.521-.945-8.874l-3.073,1.586s2.643,5.649.436,10.036c0,0,.852-6.858-1.084-9.64l-2.808,1.982s2.458,5.557.608,9.2c0,0,.185-8.028-1.222-8.7a17.452,17.452,0,0,0-2.874,2.8s1.678,4.03.41,6.046c0,0-.443-5.372-1.024-5.425,0,0-2.537,3.416-2.9,5.828a12.9,12.9,0,0,1,2.346-6.2,7.11,7.11,0,0,0-3.7,1.685s.5-2.484,4.328-2.5c0,0,2.081-2.583,2.643-2.722,0,0-3.786-.509-6.145.4,0,0,2.147-2.26,6.871-.945l2.775-2.042s-4.969-.938-7.129-.291c0,0,2.551-1.982,7.876-.165l2.993-1.592a26.309,26.309,0,0,0-6.779-.932s2.755-1.321,7.651.509l2.128-.826s-3.1-.773-4-.918-.951-.4-.951-.4a10.869,10.869,0,0,1,5.841.951S1066.724,438.083,1066.658,437.8Z" transform="translate(-416.979 -184.838)"/><path class="a" d="M935.272,136.611s-20.165-15.084-27.374,1.255a4.3,4.3,0,0,0-.621,5.008s.753-1.064,2.643.7a11.57,11.57,0,0,0,2.207,1.612,5.676,5.676,0,0,0,3.548.661h0s7.506,1.447,16.155-6.687c0,0,3.079-.991,3.37-1.573l-4.539-.819s-.476,3.35-2.821,4.85c0,0,2.9-4.665,2.147-5-.152-.073-2.418-.33-2.418-.33s-.852,5.828-4.552,8.028c0,0,4.209-5.094,3.687-8.134L923.247,136s-.588,6.2-4.711,8.874c0,0,4.215-5.477,3.964-8.86l-3.423.277s-.661,6.032-4.136,8.226c0,0,4.229-6.819,3.356-8.114a16.609,16.609,0,0,0-3.9.958s-.595,4.321-2.709,5.418c0,0,2.339-4.856,1.863-5.193,0,0-3.918,1.658-5.458,3.548a12.9,12.9,0,0,1,5.167-4.149,7.116,7.116,0,0,0-4.044-.423s1.685-1.89,5,.033c0,0,3.1-1.17,3.627-1.024,0,0-3.006-2.359-5.5-2.768,0,0,3-.859,6.4,2.643l3.429-.35s-3.806-3.3-6-3.859c0,0,3.191-.4,6.872,3.839l3.389.152a26.491,26.491,0,0,0-5.372-4.242s3.039.264,6.336,4.315l2.253.363s-2.279-2.233-2.993-2.815-.608-.773-.608-.773a10.862,10.862,0,0,1,4.546,3.779S935.186,136.882,935.272,136.611Z" transform="translate(-370.543 -80.554)"/><path class="a" d="M960.115,295.757s-6.951-24.2-22.584-15.514a4.293,4.293,0,0,0-3.522,3.614s1.242-.39,1.672,2.141a11.7,11.7,0,0,0,.793,2.643,5.676,5.676,0,0,0,2.418,2.7h0s5.114,5.682,16.915,4.414c0,0,3.053,1.07,3.634.78l-3.125-3.4s-2.4,2.392-5.174,2.167c0,0,5.127-1.982,4.731-2.689-.079-.145-1.731-1.724-1.731-1.724s-4.189,4.136-8.471,3.654c0,0,6.429-1.52,7.843-4.255l-2.643-2.233s-4.215,4.586-9.111,4.229c0,0,6.66-1.83,8.5-4.678l-2.894-1.843s-4.2,4.394-8.266,4.063c0,0,7.486-2.887,7.579-4.44a16.5,16.5,0,0,0-3.693-1.586s-3.086,3.079-5.431,2.683c0,0,4.8-2.465,4.625-3.02,0,0-4.123-1.037-6.5-.463a12.891,12.891,0,0,1,6.607-.192,7.089,7.089,0,0,0-2.973-2.775s2.484-.5,3.964,3.039c0,0,3.178.938,3.509,1.374,0,0-.971-3.693-2.709-5.524,0,0,2.907,1.123,3.5,5.986l2.947,1.791s-1.031-4.955-2.458-6.7c0,0,2.788,1.606,3.165,7.209l2.643,2.161a26.2,26.2,0,0,0-1.725-6.607s2.266,2.048,2.451,7.268l1.573,1.652s-.463-3.158-.661-4.057,0-1.024,0-1.024a10.828,10.828,0,0,1,1.354,5.762S959.878,295.916,960.115,295.757Z" transform="translate(-379.806 -130.799)"/><path class="a" d="M724.488,380.762s-13.5-21.262-26.033-8.537a4.274,4.274,0,0,0-2.366,4.46s1.09-.727,2.214,1.586a11.311,11.311,0,0,0,1.493,2.286,5.644,5.644,0,0,0,3.072,1.9h0s6.508,4.017,17.476-.529c0,0,3.231.172,3.707-.271l-3.964-2.379s-1.632,2.973-4.361,3.535c0,0,4.374-3.3,3.786-3.911-.112-.119-2.147-1.163-2.147-1.163s-2.861,5.14-7.1,5.887c0,0,5.742-3.271,6.336-6.3l-3.165-1.394s-2.755,5.583-7.552,6.607c0,0,5.881-3.627,6.839-6.878l-3.3-.951s-2.788,5.4-6.786,6.224c0,0,6.37-4.876,6.019-6.4a16.413,16.413,0,0,0-3.964-.482s-2.095,3.826-4.46,4.1c0,0,3.911-3.713,3.588-4.2,0,0-4.248.165-6.363,1.388a12.858,12.858,0,0,1,6.3-2.048,7.089,7.089,0,0,0-3.627-1.83s2.24-1.169,4.625,1.8c0,0,3.3,0,3.76.33,0,0-1.982-3.3-4.156-4.539,0,0,3.105.264,5.035,4.764l3.337.885s-2.385-4.46-4.242-5.735c0,0,3.125.753,5.061,6.033l3.119,1.321a26.338,26.338,0,0,0-3.522-5.867s2.749,1.321,4.394,6.284l1.982,1.143s-1.321-2.9-1.791-3.7-.284-.984-.284-.984a10.835,10.835,0,0,1,2.914,5.147S724.309,380.987,724.488,380.762Z" transform="translate(-299.066 -161.267)"/><path class="l" d="M858.836,216.068S846,194.4,833.067,206.732a4.3,4.3,0,0,0-2.5,4.387s1.1-.7,2.161,1.645a11.421,11.421,0,0,0,1.42,2.339,5.611,5.611,0,0,0,3.013,1.982h0s6.376,4.215,17.483,0c0,0,3.224.271,3.713-.159l-3.879-2.5s-1.718,2.914-4.466,3.4c0,0,4.473-3.191,3.912-3.793-.119-.126-2.114-1.236-2.114-1.236s-3.02,5.055-7.268,5.669c0,0,5.841-3.092,6.521-6.092l-3.119-1.467s-2.927,5.5-7.757,6.383c0,0,5.993-3.442,7.05-6.66l-3.264-1.057s-2.96,5.286-6.977,6.013c0,0,6.515-4.678,6.211-6.2a16.319,16.319,0,0,0-3.964-.608s-2.213,3.76-4.585,3.964c0,0,4.024-3.581,3.72-4.083,0,0-4.255.033-6.4,1.189a12.9,12.9,0,0,1,6.363-1.85,7.1,7.1,0,0,0-3.575-1.943s2.28-1.1,4.625,1.943c0,0,3.3.112,3.746.449,0,0-1.87-3.3-4.011-4.665,0,0,3.092.357,4.883,4.916l3.3.991s-2.24-4.533-4.063-5.867c0,0,3.106.852,4.876,6.184l3.072,1.434a26.545,26.545,0,0,0-3.3-5.947s2.7,1.407,4.2,6.416l1.936,1.2s-1.242-2.94-1.678-3.753-.251-.991-.251-.991a10.856,10.856,0,0,1,2.755,5.233S858.644,216.286,858.836,216.068Z" transform="translate(-344.698 -105.21)"/><path class="l" d="M739.512,280.48s.661-25.174-16.829-21.626a4.305,4.305,0,0,0-4.453,2.385s1.322,0,.951,2.544a11.6,11.6,0,0,0-.04,2.736,5.649,5.649,0,0,0,1.487,3.3h0s3.152,6.964,14.787,9.329c0,0,2.583,1.949,3.231,1.843l-1.982-4.176s-3.006,1.546-5.59.5c0,0,5.484-.324,5.332-1.13,0-.165-1.136-2.174-1.136-2.174s-5.246,2.676-9.178.918c0,0,6.607.5,8.768-1.678l-1.843-2.927s-5.4,3.092-9.964,1.269c0,0,6.9.278,9.521-1.883l-2.2-2.643s-5.332,2.92-9.111,1.374c0,0,8.008-.482,8.59-1.943a17.137,17.137,0,0,0-3.039-2.643s-3.872,1.982-5.986.912c0,0,5.286-.885,5.319-1.473,0,0-3.614-2.24-6.052-2.405a12.863,12.863,0,0,1,6.376,1.824,7.1,7.1,0,0,0-1.982-3.548s2.517.284,2.861,4.1c0,0,2.755,1.863,2.934,2.379,0,0,.192-3.812-.912-6.085,0,0,2.432,1.949,1.52,6.759l2.266,2.6s.515-5.035-.311-7.129c0,0,2.167,2.372.833,7.83l1.83,2.848a26.342,26.342,0,0,0,.363-6.832s1.533,2.643.132,7.671l1,2.048s.509-3.152.575-4.07.317-.978.317-.978a10.849,10.849,0,0,1-.456,5.9S739.221,280.566,739.512,280.48Z" transform="translate(-306.598 -124.064)"/><ellipse class="a" cx="17.793" cy="3.006" rx="17.793" ry="3.006" transform="translate(444.034 470.274)"/><ellipse class="a" cx="17.793" cy="3.006" rx="17.793" ry="3.006" transform="translate(379.171 515.917)"/><ellipse class="a" cx="17.793" cy="3.006" rx="17.793" ry="3.006" transform="translate(43.745 492.534)"/><ellipse class="a" cx="17.793" cy="3.006" rx="17.793" ry="3.006" transform="translate(514.131 512.911)"/><ellipse class="l" cx="26.568" cy="4.493" rx="26.568" ry="4.493" transform="translate(523.883 473.281)"/><path class="l" d="M932.381,760.717a7.671,7.671,0,0,0,2.531-3.819,3.394,3.394,0,0,0-1.764-3.892c-1.625-.621-3.363.5-4.685,1.639s-2.821,2.438-4.546,2.2a6.938,6.938,0,0,0,2.141-6.482,2.717,2.717,0,0,0-.595-1.321c-.905-.965-2.537-.548-3.621.211-3.436,2.418-4.394,7.083-4.414,11.285a21.213,21.213,0,0,1-.06-4.625c-.007-1.533-.436-3.3-1.751-4.11a5.226,5.226,0,0,0-2.643-.661c-1.546-.053-3.271.1-4.321,1.229-1.321,1.4-.971,3.76.165,5.286a17.088,17.088,0,0,0,4.473,3.581,9.994,9.994,0,0,1,3.2,3.046,3.117,3.117,0,0,1,.231.542h9.686a26.717,26.717,0,0,0,5.973-4.11Z" transform="translate(-370.915 -290.297)"/><path class="o" d="M170.29,781.055s10.142-.311,13.215-2.491,15.613-4.777,16.373-1.282,15.25,17.371,3.793,17.463S177.049,792.961,174,791.1,170.29,781.055,170.29,781.055Z" transform="translate(-120.697 -299.488)"/><path class="p" d="M203.862,796.338c-11.457.092-26.621-1.784-29.673-3.647-2.326-1.414-3.251-6.495-3.561-8.841h-.337s.661,8.186,3.693,10.043,18.216,3.74,29.673,3.647c3.3,0,4.447-1.2,4.387-2.947C207.581,795.657,206.32,796.318,203.862,796.338Z" transform="translate(-120.697 -302.297)"/></g></svg>